<mxfile host="Electron" agent="Mozilla/5.0 (Macintosh; Intel Mac OS X 10_15_7) AppleWebKit/537.36 (KHTML, like Gecko) draw.io/25.0.2 Chrome/128.0.6613.186 Electron/32.2.5 Safari/537.36" version="25.0.2">
  <diagram name="Page-1" id="s3JTDgsFL5jB2meH7k_M">
    <mxGraphModel dx="884" dy="-426" grid="1" gridSize="10" guides="1" tooltips="1" connect="1" arrows="1" fold="1" page="1" pageScale="1" pageWidth="850" pageHeight="1100" background="#ffffff" math="0" shadow="0">
      <root>
        <mxCell id="0" />
        <mxCell id="1" parent="0" />
        <mxCell id="jkYtEv4tslXzvxiTXVlJ-109" value="" style="rounded=0;whiteSpace=wrap;html=1;fillColor=#FFFFFF;fontColor=#333333;strokeColor=none;" parent="1" vertex="1">
          <mxGeometry x="40" y="1150" width="1220" height="620" as="geometry" />
        </mxCell>
        <mxCell id="jkYtEv4tslXzvxiTXVlJ-48" value="V1&#xa;ETH ⬌ ERC20&#xa;AMM 初代模型" style="whiteSpace=wrap;strokeWidth=2;labelBackgroundColor=none;fillColor=#ffe6cc;strokeColor=#d79b00;labelBorderColor=none;fontColor=#333333;" parent="1" vertex="1">
          <mxGeometry x="710.5" y="1200" width="170" height="55" as="geometry" />
        </mxCell>
        <mxCell id="jkYtEv4tslXzvxiTXVlJ-49" value="V2&#xa;ERC20 ⬌ ERC20&#xa;币币交易" style="whiteSpace=wrap;strokeWidth=2;labelBackgroundColor=none;fillColor=#ffe6cc;strokeColor=#d79b00;labelBorderColor=none;fontColor=#333333;" parent="1" vertex="1">
          <mxGeometry x="710.5" y="1325" width="170" height="55" as="geometry" />
        </mxCell>
        <mxCell id="jkYtEv4tslXzvxiTXVlJ-50" value="V3&#xa;集中流动性&#xa;LP NFT" style="whiteSpace=wrap;strokeWidth=2;labelBackgroundColor=none;fillColor=#ffe6cc;strokeColor=#d79b00;labelBorderColor=none;fontColor=#333333;" parent="1" vertex="1">
          <mxGeometry x="710.5" y="1432" width="170" height="55" as="geometry" />
        </mxCell>
        <mxCell id="jkYtEv4tslXzvxiTXVlJ-51" value="V4&#xa;V4: Hooks + Singleton&#xa;平台化 AMM " style="whiteSpace=wrap;strokeWidth=2;labelBackgroundColor=none;fillColor=#ffe6cc;strokeColor=#d79b00;labelBorderColor=none;fontColor=#333333;" parent="1" vertex="1">
          <mxGeometry x="710.5" y="1539" width="170" height="55" as="geometry" />
        </mxCell>
        <mxCell id="jkYtEv4tslXzvxiTXVlJ-100" style="edgeStyle=orthogonalEdgeStyle;rounded=0;orthogonalLoop=1;jettySize=auto;html=1;exitX=0.5;exitY=1;exitDx=0;exitDy=0;entryX=0.5;entryY=0;entryDx=0;entryDy=0;labelBackgroundColor=none;fontColor=default;fillColor=#f5f5f5;strokeColor=#666666;" parent="1" source="jkYtEv4tslXzvxiTXVlJ-52" target="jkYtEv4tslXzvxiTXVlJ-53" edge="1">
          <mxGeometry relative="1" as="geometry" />
        </mxCell>
        <mxCell id="jkYtEv4tslXzvxiTXVlJ-52" value="用户&#xa;ETH ⬌ ERC20" style="whiteSpace=wrap;strokeWidth=2;labelBackgroundColor=none;fillColor=#fff2cc;strokeColor=#d6b656;fontColor=#333333;" parent="1" vertex="1">
          <mxGeometry x="100" y="1325" width="170" height="55" as="geometry" />
        </mxCell>
        <mxCell id="jkYtEv4tslXzvxiTXVlJ-99" style="edgeStyle=orthogonalEdgeStyle;rounded=0;orthogonalLoop=1;jettySize=auto;html=1;exitX=0.5;exitY=1;exitDx=0;exitDy=0;entryX=0.5;entryY=0;entryDx=0;entryDy=0;labelBackgroundColor=none;fontColor=default;fillColor=#f5f5f5;strokeColor=#666666;" parent="1" source="jkYtEv4tslXzvxiTXVlJ-53" target="jkYtEv4tslXzvxiTXVlJ-54" edge="1">
          <mxGeometry relative="1" as="geometry" />
        </mxCell>
        <mxCell id="jkYtEv4tslXzvxiTXVlJ-53" value="用户&#xa;ERC20 ⬌ ERC20&#xa;支持币币兑换" style="whiteSpace=wrap;strokeWidth=2;labelBackgroundColor=none;fillColor=#fff2cc;strokeColor=#d6b656;fontColor=#333333;" parent="1" vertex="1">
          <mxGeometry x="100" y="1432" width="170" height="55" as="geometry" />
        </mxCell>
        <mxCell id="jkYtEv4tslXzvxiTXVlJ-54" value="用户&#xa;更低滑点" style="whiteSpace=wrap;strokeWidth=2;labelBackgroundColor=none;fillColor=#fff2cc;strokeColor=#d6b656;fontColor=#333333;" parent="1" vertex="1">
          <mxGeometry x="100" y="1539" width="170" height="55" as="geometry" />
        </mxCell>
        <mxCell id="jkYtEv4tslXzvxiTXVlJ-55" value="用户&#xa;更低 Gas + 防 MEV" style="whiteSpace=wrap;strokeWidth=2;labelBackgroundColor=none;fillColor=#fff2cc;strokeColor=#d6b656;fontColor=#333333;" parent="1" vertex="1">
          <mxGeometry x="100" y="1655.5" width="170" height="55" as="geometry" />
        </mxCell>
        <mxCell id="jkYtEv4tslXzvxiTXVlJ-101" style="edgeStyle=orthogonalEdgeStyle;rounded=0;orthogonalLoop=1;jettySize=auto;html=1;exitX=0.5;exitY=1;exitDx=0;exitDy=0;entryX=0.5;entryY=0;entryDx=0;entryDy=0;labelBackgroundColor=none;fontColor=default;fillColor=#f5f5f5;strokeColor=#666666;" parent="1" source="jkYtEv4tslXzvxiTXVlJ-56" target="jkYtEv4tslXzvxiTXVlJ-57" edge="1">
          <mxGeometry relative="1" as="geometry" />
        </mxCell>
        <mxCell id="jkYtEv4tslXzvxiTXVlJ-56" value="LP&#xa;流动性任意比例" style="whiteSpace=wrap;strokeWidth=2;labelBackgroundColor=none;fillColor=#d5e8d4;strokeColor=#82b366;fontColor=#333333;" parent="1" vertex="1">
          <mxGeometry x="427.5" y="1325" width="170" height="55" as="geometry" />
        </mxCell>
        <mxCell id="jkYtEv4tslXzvxiTXVlJ-102" style="edgeStyle=orthogonalEdgeStyle;rounded=0;orthogonalLoop=1;jettySize=auto;html=1;exitX=0.5;exitY=1;exitDx=0;exitDy=0;entryX=0.5;entryY=0;entryDx=0;entryDy=0;labelBackgroundColor=none;fontColor=default;fillColor=#f5f5f5;strokeColor=#666666;" parent="1" source="jkYtEv4tslXzvxiTXVlJ-57" target="jkYtEv4tslXzvxiTXVlJ-58" edge="1">
          <mxGeometry relative="1" as="geometry" />
        </mxCell>
        <mxCell id="jkYtEv4tslXzvxiTXVlJ-57" value="LP&#xa;双币池子" style="whiteSpace=wrap;strokeWidth=2;labelBackgroundColor=none;fillColor=#d5e8d4;strokeColor=#82b366;fontColor=#333333;" parent="1" vertex="1">
          <mxGeometry x="427.5" y="1432" width="170" height="55" as="geometry" />
        </mxCell>
        <mxCell id="jkYtEv4tslXzvxiTXVlJ-111" style="edgeStyle=orthogonalEdgeStyle;rounded=0;orthogonalLoop=1;jettySize=auto;html=1;exitX=0.5;exitY=1;exitDx=0;exitDy=0;entryX=0.5;entryY=0;entryDx=0;entryDy=0;strokeColor=#666666;" parent="1" source="jkYtEv4tslXzvxiTXVlJ-58" target="jkYtEv4tslXzvxiTXVlJ-59" edge="1">
          <mxGeometry relative="1" as="geometry" />
        </mxCell>
        <mxCell id="jkYtEv4tslXzvxiTXVlJ-58" value="LP&#xa;集中定价区间" style="whiteSpace=wrap;strokeWidth=2;labelBackgroundColor=none;fillColor=#d5e8d4;strokeColor=#82b366;fontColor=#333333;" parent="1" vertex="1">
          <mxGeometry x="427.5" y="1539" width="170" height="55" as="geometry" />
        </mxCell>
        <mxCell id="jkYtEv4tslXzvxiTXVlJ-59" value="LP&#xa;策略自动化" style="whiteSpace=wrap;strokeWidth=2;labelBackgroundColor=none;fillColor=#d5e8d4;strokeColor=#82b366;fontColor=#333333;" parent="1" vertex="1">
          <mxGeometry x="427.5" y="1655.5" width="170" height="55" as="geometry" />
        </mxCell>
        <mxCell id="jkYtEv4tslXzvxiTXVlJ-106" style="edgeStyle=orthogonalEdgeStyle;rounded=0;orthogonalLoop=1;jettySize=auto;html=1;exitX=0.5;exitY=1;exitDx=0;exitDy=0;entryX=0.5;entryY=0;entryDx=0;entryDy=0;labelBackgroundColor=none;fontColor=default;fillColor=#f5f5f5;strokeColor=#666666;" parent="1" source="jkYtEv4tslXzvxiTXVlJ-60" target="jkYtEv4tslXzvxiTXVlJ-61" edge="1">
          <mxGeometry relative="1" as="geometry" />
        </mxCell>
        <mxCell id="jkYtEv4tslXzvxiTXVlJ-60" value="开发者&#xa;不可扩展" style="whiteSpace=wrap;strokeWidth=2;labelBackgroundColor=none;fillColor=#dae8fc;strokeColor=#6c8ebf;fontColor=#333333;" parent="1" vertex="1">
          <mxGeometry x="1032.5" y="1325" width="170" height="55" as="geometry" />
        </mxCell>
        <mxCell id="jkYtEv4tslXzvxiTXVlJ-107" style="edgeStyle=orthogonalEdgeStyle;rounded=0;orthogonalLoop=1;jettySize=auto;html=1;exitX=0.5;exitY=1;exitDx=0;exitDy=0;entryX=0.5;entryY=0;entryDx=0;entryDy=0;labelBackgroundColor=none;fontColor=default;fillColor=#f5f5f5;strokeColor=#666666;" parent="1" source="jkYtEv4tslXzvxiTXVlJ-61" target="jkYtEv4tslXzvxiTXVlJ-62" edge="1">
          <mxGeometry relative="1" as="geometry" />
        </mxCell>
        <mxCell id="jkYtEv4tslXzvxiTXVlJ-61" value="开发者&#xa;Fork为主" style="whiteSpace=wrap;strokeWidth=2;labelBackgroundColor=none;fillColor=#dae8fc;strokeColor=#6c8ebf;fontColor=#333333;" parent="1" vertex="1">
          <mxGeometry x="1032.5" y="1432" width="170" height="55" as="geometry" />
        </mxCell>
        <mxCell id="jkYtEv4tslXzvxiTXVlJ-108" style="edgeStyle=orthogonalEdgeStyle;rounded=0;orthogonalLoop=1;jettySize=auto;html=1;exitX=0.5;exitY=1;exitDx=0;exitDy=0;entryX=0.5;entryY=0;entryDx=0;entryDy=0;labelBackgroundColor=none;fontColor=default;fillColor=#f5f5f5;strokeColor=#666666;" parent="1" source="jkYtEv4tslXzvxiTXVlJ-62" target="jkYtEv4tslXzvxiTXVlJ-63" edge="1">
          <mxGeometry relative="1" as="geometry" />
        </mxCell>
        <mxCell id="jkYtEv4tslXzvxiTXVlJ-62" value="开发者&#xa;LP NFT可组合性" style="whiteSpace=wrap;strokeWidth=2;labelBackgroundColor=none;fillColor=#dae8fc;strokeColor=#6c8ebf;fontColor=#333333;" parent="1" vertex="1">
          <mxGeometry x="1032.5" y="1539" width="170" height="55" as="geometry" />
        </mxCell>
        <mxCell id="jkYtEv4tslXzvxiTXVlJ-63" value="开发者&#xa;Hooks 编写插件逻辑" style="whiteSpace=wrap;strokeWidth=2;labelBackgroundColor=none;fillColor=#dae8fc;strokeColor=#6c8ebf;fontColor=#333333;" parent="1" vertex="1">
          <mxGeometry x="1032.5" y="1655.5" width="170" height="55" as="geometry" />
        </mxCell>
        <mxCell id="jkYtEv4tslXzvxiTXVlJ-68" value="" style="curved=1;startArrow=none;endArrow=block;exitX=0.5;exitY=1;entryX=0.5;entryY=0;rounded=0;labelBackgroundColor=none;fontColor=default;fillColor=#f5f5f5;strokeColor=#666666;" parent="1" source="jkYtEv4tslXzvxiTXVlJ-48" target="jkYtEv4tslXzvxiTXVlJ-49" edge="1">
          <mxGeometry relative="1" as="geometry">
            <Array as="points" />
          </mxGeometry>
        </mxCell>
        <mxCell id="jkYtEv4tslXzvxiTXVlJ-69" value="" style="curved=1;startArrow=none;endArrow=block;exitX=0.5;exitY=1;entryX=0.5;entryY=0;rounded=0;labelBackgroundColor=none;fontColor=default;fillColor=#f5f5f5;strokeColor=#666666;" parent="1" source="jkYtEv4tslXzvxiTXVlJ-49" target="jkYtEv4tslXzvxiTXVlJ-50" edge="1">
          <mxGeometry relative="1" as="geometry">
            <Array as="points" />
          </mxGeometry>
        </mxCell>
        <mxCell id="jkYtEv4tslXzvxiTXVlJ-70" value="" style="curved=1;startArrow=none;endArrow=block;exitX=0.5;exitY=0.99;entryX=0.5;entryY=0;rounded=0;labelBackgroundColor=none;fontColor=default;fillColor=#f5f5f5;strokeColor=#666666;" parent="1" source="jkYtEv4tslXzvxiTXVlJ-50" target="jkYtEv4tslXzvxiTXVlJ-51" edge="1">
          <mxGeometry relative="1" as="geometry">
            <Array as="points" />
          </mxGeometry>
        </mxCell>
        <mxCell id="jkYtEv4tslXzvxiTXVlJ-73" value="" style="curved=1;startArrow=none;endArrow=block;exitX=0.5;exitY=1;entryX=0.5;entryY=-0.01;rounded=0;labelBackgroundColor=none;fontColor=default;fillColor=#f5f5f5;strokeColor=#666666;" parent="1" source="jkYtEv4tslXzvxiTXVlJ-54" target="jkYtEv4tslXzvxiTXVlJ-55" edge="1">
          <mxGeometry relative="1" as="geometry">
            <Array as="points" />
          </mxGeometry>
        </mxCell>
        <mxCell id="jkYtEv4tslXzvxiTXVlJ-74" value="" style="curved=1;startArrow=none;endArrow=block;exitX=0;exitY=0.69;entryX=0.5;entryY=0;rounded=0;labelBackgroundColor=none;fontColor=default;fillColor=#f5f5f5;strokeColor=#666666;" parent="1" source="jkYtEv4tslXzvxiTXVlJ-48" target="jkYtEv4tslXzvxiTXVlJ-52" edge="1">
          <mxGeometry relative="1" as="geometry">
            <Array as="points">
              <mxPoint x="273.5" y="1291" />
            </Array>
          </mxGeometry>
        </mxCell>
        <mxCell id="jkYtEv4tslXzvxiTXVlJ-75" value="" style="curved=1;startArrow=none;endArrow=block;exitX=0;exitY=0.7;entryX=0.75;entryY=0;rounded=0;labelBackgroundColor=none;fontColor=default;fillColor=#f5f5f5;strokeColor=#666666;entryDx=0;entryDy=0;" parent="1" source="jkYtEv4tslXzvxiTXVlJ-49" target="jkYtEv4tslXzvxiTXVlJ-53" edge="1">
          <mxGeometry relative="1" as="geometry">
            <Array as="points">
              <mxPoint x="410.5" y="1407" />
            </Array>
          </mxGeometry>
        </mxCell>
        <mxCell id="jkYtEv4tslXzvxiTXVlJ-76" value="" style="curved=1;startArrow=none;endArrow=block;exitX=0;exitY=0.79;entryX=0.75;entryY=0;rounded=0;labelBackgroundColor=none;fontColor=default;fillColor=#f5f5f5;strokeColor=#666666;entryDx=0;entryDy=0;" parent="1" source="jkYtEv4tslXzvxiTXVlJ-50" target="jkYtEv4tslXzvxiTXVlJ-54" edge="1">
          <mxGeometry relative="1" as="geometry">
            <Array as="points">
              <mxPoint x="420.5" y="1506" />
            </Array>
          </mxGeometry>
        </mxCell>
        <mxCell id="jkYtEv4tslXzvxiTXVlJ-77" value="" style="curved=1;startArrow=none;endArrow=block;exitX=0;exitY=0.77;entryX=0.75;entryY=0;rounded=0;labelBackgroundColor=none;fontColor=default;fillColor=#f5f5f5;strokeColor=#666666;entryDx=0;entryDy=0;" parent="1" source="jkYtEv4tslXzvxiTXVlJ-51" target="jkYtEv4tslXzvxiTXVlJ-55" edge="1">
          <mxGeometry relative="1" as="geometry">
            <Array as="points">
              <mxPoint x="430.5" y="1622" />
            </Array>
          </mxGeometry>
        </mxCell>
        <mxCell id="jkYtEv4tslXzvxiTXVlJ-81" value="" style="curved=1;startArrow=none;endArrow=block;exitX=0;exitY=0.84;entryX=0.5;entryY=0;rounded=0;labelBackgroundColor=none;fontColor=default;fillColor=#f5f5f5;strokeColor=#666666;" parent="1" source="jkYtEv4tslXzvxiTXVlJ-48" target="jkYtEv4tslXzvxiTXVlJ-56" edge="1">
          <mxGeometry relative="1" as="geometry">
            <Array as="points">
              <mxPoint x="529.5" y="1291" />
            </Array>
          </mxGeometry>
        </mxCell>
        <mxCell id="jkYtEv4tslXzvxiTXVlJ-82" value="" style="curved=1;startArrow=none;endArrow=block;exitX=0.02;exitY=1;entryX=0.9;entryY=0;rounded=0;labelBackgroundColor=none;fontColor=default;fillColor=#f5f5f5;strokeColor=#666666;" parent="1" source="jkYtEv4tslXzvxiTXVlJ-49" target="jkYtEv4tslXzvxiTXVlJ-57" edge="1">
          <mxGeometry relative="1" as="geometry">
            <Array as="points">
              <mxPoint x="672.5" y="1407" />
            </Array>
          </mxGeometry>
        </mxCell>
        <mxCell id="jkYtEv4tslXzvxiTXVlJ-83" value="" style="curved=1;startArrow=none;endArrow=block;exitX=0.2;exitY=0.99;entryX=0.78;entryY=0.01;rounded=0;labelBackgroundColor=none;fontColor=default;fillColor=#f5f5f5;strokeColor=#666666;" parent="1" source="jkYtEv4tslXzvxiTXVlJ-50" target="jkYtEv4tslXzvxiTXVlJ-58" edge="1">
          <mxGeometry relative="1" as="geometry">
            <Array as="points">
              <mxPoint x="682.5" y="1506" />
            </Array>
          </mxGeometry>
        </mxCell>
        <mxCell id="jkYtEv4tslXzvxiTXVlJ-84" value="" style="curved=1;startArrow=none;endArrow=block;exitX=0.5;exitY=1;entryX=0.77;entryY=-0.01;rounded=0;labelBackgroundColor=none;fontColor=default;fillColor=#f5f5f5;strokeColor=#666666;" parent="1" source="jkYtEv4tslXzvxiTXVlJ-51" target="jkYtEv4tslXzvxiTXVlJ-59" edge="1">
          <mxGeometry relative="1" as="geometry">
            <Array as="points">
              <mxPoint x="765.5" y="1640" />
            </Array>
          </mxGeometry>
        </mxCell>
        <mxCell id="jkYtEv4tslXzvxiTXVlJ-88" value="" style="curved=1;startArrow=none;endArrow=block;exitX=1;exitY=0.5;entryX=0.5;entryY=0;rounded=0;exitDx=0;exitDy=0;labelBackgroundColor=none;fontColor=default;fillColor=#f5f5f5;strokeColor=#666666;" parent="1" source="jkYtEv4tslXzvxiTXVlJ-48" target="jkYtEv4tslXzvxiTXVlJ-60" edge="1">
          <mxGeometry relative="1" as="geometry">
            <Array as="points">
              <mxPoint x="1055.5" y="1270" />
            </Array>
          </mxGeometry>
        </mxCell>
        <mxCell id="jkYtEv4tslXzvxiTXVlJ-89" value="" style="curved=1;startArrow=none;endArrow=block;exitX=1;exitY=0.5;entryX=0.25;entryY=0;rounded=0;entryDx=0;entryDy=0;exitDx=0;exitDy=0;labelBackgroundColor=none;fontColor=default;fillColor=#f5f5f5;strokeColor=#666666;" parent="1" source="jkYtEv4tslXzvxiTXVlJ-49" target="jkYtEv4tslXzvxiTXVlJ-61" edge="1">
          <mxGeometry relative="1" as="geometry">
            <Array as="points">
              <mxPoint x="1015.5" y="1380" />
            </Array>
          </mxGeometry>
        </mxCell>
        <mxCell id="jkYtEv4tslXzvxiTXVlJ-90" value="" style="curved=1;startArrow=none;endArrow=block;exitX=1;exitY=0.5;entryX=0.25;entryY=0;rounded=0;entryDx=0;entryDy=0;exitDx=0;exitDy=0;labelBackgroundColor=none;fontColor=default;fillColor=#f5f5f5;strokeColor=#666666;" parent="1" source="jkYtEv4tslXzvxiTXVlJ-50" target="jkYtEv4tslXzvxiTXVlJ-62" edge="1">
          <mxGeometry relative="1" as="geometry">
            <Array as="points">
              <mxPoint x="995.5" y="1470" />
            </Array>
          </mxGeometry>
        </mxCell>
        <mxCell id="jkYtEv4tslXzvxiTXVlJ-91" value="" style="curved=1;startArrow=none;endArrow=block;exitX=1;exitY=0.5;entryX=0.25;entryY=0;rounded=0;entryDx=0;entryDy=0;exitDx=0;exitDy=0;labelBackgroundColor=none;fontColor=default;fillColor=#f5f5f5;strokeColor=#666666;" parent="1" source="jkYtEv4tslXzvxiTXVlJ-51" target="jkYtEv4tslXzvxiTXVlJ-63" edge="1">
          <mxGeometry relative="1" as="geometry">
            <Array as="points">
              <mxPoint x="1025.5" y="1590" />
            </Array>
          </mxGeometry>
        </mxCell>
      </root>
    </mxGraphModel>
  </diagram>
</mxfile>
